<svg id="Capa_1" data-name="Capa 1" xmlns="http://www.w3.org/2000/svg" viewBox="0 0 28.75 24.04"><defs><style>.cls-1{fill:#54667a;}</style></defs><title>camara</title><g id="_Grupo_" data-name="&lt;Grupo&gt;"><g id="_Grupo_2" data-name="&lt;Grupo&gt;"><g id="_Grupo_3" data-name="&lt;Grupo&gt;"><path id="_Trazado_compuesto_" data-name="&lt;Trazado compuesto&gt;" class="cls-1" d="M698.43,382.61l-1.89-.69.07-.16h0l2.12-1.48a.59.59,0,0,0,.25-.55.64.64,0,0,0-.39-.48l-18.15-6.6a1.35,1.35,0,0,0-1,0,1.24,1.24,0,0,0-.67.74l-2.72,7.48a1.35,1.35,0,0,0,0,1,1.24,1.24,0,0,0,.74.67l5.31,1.94-1.94,3.88a2.31,2.31,0,0,0-1.29.81h-2.47v-1.73a.6.6,0,0,0-.6-.6H673.7a1.66,1.66,0,0,0-1.59-1.18h-1.27a.6.6,0,0,0-.6.6V396a.6.6,0,0,0,.6.6h1.29a1.64,1.64,0,0,0,1.59-1.18h2.15a.6.6,0,0,0,.6-.6v-2.1h3.09a2.25,2.25,0,0,0,1.18.32,2.37,2.37,0,0,0,2.36-2.36v-.21l2.4-4.76,8,2.93a.67.67,0,0,0,.21,0,1,1,0,0,0,.25,0,.59.59,0,0,0,.3-.32l.6-1.64,1.89.69a.67.67,0,0,0,.21,0,1,1,0,0,0,.25,0,.59.59,0,0,0,.3-.32l1.32-3.6A.76.76,0,0,0,698.43,382.61Zm-25.79,4.83v7.46a.51.51,0,0,1-.51.51h-.67v-8.54h.67a.51.51,0,0,1,.51.51Zm2.63,6.79H673.8V388h1.48Zm1.18-2.7v-1.18h1.94a1.42,1.42,0,0,0,0,.32,2.55,2.55,0,0,0,.16.85Zm4.27.32a1.18,1.18,0,1,1,1.18-1.18A1.17,1.17,0,0,1,680.72,391.84Zm1.73-2.77a2.27,2.27,0,0,0-1-.62l1.75-3.56,1.11.39Zm11.78-4.16-.88,2.4-16.12-5.86s0,0-.07-.07,0,0,0-.09l.46-1.25,3.51,1.29a.59.59,0,0,0,.42-1.11L678,379l1.87-5.15s0,0,.07-.07,0,0,.09,0L697.19,380l-5.59,3.93-5.38-2a.59.59,0,1,0-.42,1.11l5.61,2.05a.67.67,0,0,0,.21,0A.69.69,0,0,0,692,385l3-2.08Zm2.36,1.11-1.34-.48.9-2.49,1.34.48Z" transform="translate(-670.24 -372.56)"/><path id="_Trazado_" data-name="&lt;Trazado&gt;" class="cls-1" d="M684,381.13l-.09,0a.59.59,0,1,0-.42,1.11l.09,0a.67.67,0,0,0,.21,0,.59.59,0,0,0,.55-.39A.6.6,0,0,0,684,381.13Z" transform="translate(-670.24 -372.56)"/></g></g></g></svg>