<svg id="Capa_1" data-name="Capa 1" xmlns="http://www.w3.org/2000/svg" viewBox="0 0 14.76 22.07"><defs><style>.cls-1{fill:#54667a;}</style></defs><title>caminar</title><circle class="cls-1" cx="8.22" cy="1.83" r="1.83"/><path class="cls-1" d="M690.54,383.66c-.51-.09-2.55-.44-2.66-.48s0,0,0-.07-1.82-3.82-2-4a3.17,3.17,0,0,0-1.32-.91,2,2,0,0,0-1.34.13s-3.34,1.91-3.55,2a1.35,1.35,0,0,0-.41.5l-1.56,2.93a.94.94,0,1,0,1.65.8l1.45-2.75.91-.51c-.07.2-.9,4.26-.9,4.26l-.85,4.81L677,394a1.09,1.09,0,1,0,1.63,1.42l3.54-4.16a1.48,1.48,0,0,0,.41-.75c0-.23.53-3.16.53-3.16l2.8,2.8V395h0a1.09,1.09,0,0,0,2.18,0h0v-.13c0-.75,0-4.49,0-5.34s-.3-1.15-.38-1.24L685,385.47l.57-2.79s.75,1.46.82,1.63a1,1,0,0,0,.56.51l3.36.68h.14a.93.93,0,0,0,.09-1.85Z" transform="translate(-676.62 -373.95)"/></svg>