<svg id="Capa_1" data-name="Capa 1" xmlns="http://www.w3.org/2000/svg" viewBox="0 0 24.07 21.45"><defs><style>.cls-1{fill:#54667a;}</style></defs><title>carro</title><g id="_Grupo_" data-name="&lt;Grupo&gt;"><g id="sUHZb7"><g id="_Grupo_2" data-name="&lt;Grupo&gt;"><path id="_Trazado_" data-name="&lt;Trazado&gt;" class="cls-1" d="M692.94,380h-1.18c-.92-2.41-.6-5.85-3.28-6.35-.63-.11-8.18-.2-10.5,0-3.13.2-2.86,3.84-3.75,6.39H673c.38-1.32.83-2.93,1.23-4.36a7.47,7.47,0,0,1,.42-1.41,3.3,3.3,0,0,1,2.39-1.59c1.85-.18,3.93,0,5.92,0s4.07-.16,5.92,0a3.13,3.13,0,0,1,2.26,1.32,11,11,0,0,1,.94,3A30.18,30.18,0,0,1,692.94,380Z" transform="translate(-670.99 -372.55)"/><path id="_Trazado_2" data-name="&lt;Trazado&gt;" class="cls-1" d="M677.59,381a.26.26,0,0,1-.38,0C677.23,380.88,677.41,381.06,677.59,381Z" transform="translate(-670.99 -372.55)"/><path class="cls-1" d="M694.88,381.88c-.47-1.05-1.59-.89-3-.89H674.55a13.71,13.71,0,0,0-2.35,0c-1.52.29-1.18,2.39-1.18,4.31a11.47,11.47,0,0,0,.09,2.59c.42,1.34,2.08,1,3.8,1h16.15a18.44,18.44,0,0,0,2.73,0c1.47-.27,1.23-2.08,1.23-4A9.9,9.9,0,0,0,694.88,381.88Zm-20,3.17a1.35,1.35,0,0,1-1.33.94,1.57,1.57,0,0,1-1.12-.42,1.5,1.5,0,0,1-.47-1.16,1.39,1.39,0,0,1,1.21-1.41A1.49,1.49,0,0,1,674.87,385Zm17.6.94a1.54,1.54,0,0,1-1.45-2.06,1.58,1.58,0,0,1,2.95.13C694.06,385.26,693.46,386,692.47,386Z" transform="translate(-670.99 -372.55)"/><path id="_Trazado_3" data-name="&lt;Trazado&gt;" class="cls-1" d="M672.05,389.95H676c-.07,1.65.4,3.66-1,4a5.87,5.87,0,0,1-1.88,0c-1.41-.27-1.09-2.17-1.12-3.84A.15.15,0,0,1,672.05,389.95Z" transform="translate(-670.99 -372.55)"/><path id="_Trazado_4" data-name="&lt;Trazado&gt;" class="cls-1" d="M690.1,389.95H694c-.07,1.65.4,3.66-1,4a5.87,5.87,0,0,1-1.88,0c-1.41-.27-1.09-2.17-1.12-3.84A.15.15,0,0,1,690.1,389.95Z" transform="translate(-670.99 -372.55)"/></g></g></g></svg>